<svg xmlns="http://www.w3.org/2000/svg" width="1882.375" height="466.739" viewBox="0 0 1882.375 466.739">
  <g id="Group_1" data-name="Group 1" transform="translate(-19.5 -168.427)">
    <text id="nr" transform="translate(304.515 558.166)" fill="#707070" font-size="307" font-family="GillSans-UltraBold, Gill Sans" font-weight="700"><tspan x="0" y="0">nr</tspan></text>
    <path id="Path_1" data-name="Path 1" d="M130.567,136.733H5V5H130.567Z" transform="translate(264.819 336.822)" fill="#707070" stroke="#f9f9f9" stroke-width="10"/>
    <rect id="Rectangle_6" data-name="Rectangle 6" width="29.541" height="30.612" transform="translate(230.95 168.427)" fill="#707070"/>
    <rect id="Rectangle_7" data-name="Rectangle 7" width="73.074" height="75.725" transform="translate(296.25 231.263)" fill="#707070"/>
    <path id="Path_3" data-name="Path 3" d="M0,0H121.1V126.873H0Z" transform="translate(156.32 481.994)" fill="#707070"/>
    <path id="Path_5" data-name="Path 5" d="M0,0H121.1V126.873H0Z" transform="translate(156.32 206.484)" fill="#707070"/>
    <path id="Path_6" data-name="Path 6" d="M0,0H121.1V126.873H0Z" transform="translate(19.5 345.045)" fill="#707070"/>
    <rect id="Rectangle_8" data-name="Rectangle 8" width="29.541" height="30.612" transform="translate(219.95 359.427)" fill="#707070" stroke="#f9f9f9" stroke-width="1"/>
    <rect id="Rectangle_9" data-name="Rectangle 9" width="29.541" height="30.612" transform="translate(187.95 359.427)" fill="#707070" stroke="#f9f9f9" stroke-width="1"/>
    <rect id="Rectangle_10" data-name="Rectangle 10" width="29.541" height="30.612" transform="translate(155.95 359.427)" fill="#707070" stroke="#f9f9f9" stroke-width="1"/>
    <rect id="Rectangle_11" data-name="Rectangle 11" width="29.541" height="30.612" transform="translate(219.95 392.427)" fill="#707070" stroke="#f9f9f9" stroke-width="1"/>
    <rect id="Rectangle_12" data-name="Rectangle 12" width="29.541" height="30.612" transform="translate(187.95 392.427)" fill="#707070" stroke="#f9f9f9" stroke-width="1"/>
    <rect id="Rectangle_13" data-name="Rectangle 13" width="29.541" height="30.612" transform="translate(155.95 392.427)" fill="#707070" stroke="#f9f9f9" stroke-width="1"/>
    <rect id="Rectangle_14" data-name="Rectangle 14" width="29.541" height="30.612" transform="translate(219.95 425.427)" fill="#707070" stroke="#f9f9f9" stroke-width="1"/>
    <rect id="Rectangle_15" data-name="Rectangle 15" width="29.541" height="30.612" transform="translate(187.95 425.427)" fill="#707070" stroke="#f9f9f9" stroke-width="1"/>
    <rect id="Rectangle_16" data-name="Rectangle 16" width="29.541" height="30.612" transform="translate(155.95 425.427)" fill="#707070" stroke="#f9f9f9" stroke-width="1"/>
    <text id="Healthcare" transform="translate(757.875 468.947)" fill="#707070" font-size="166" font-family="GillSans-UltraBold, Gill Sans" font-weight="700"><tspan x="0" y="0">Healthcare</tspan></text>
    <text id="consultancy" transform="translate(776 573)" fill="#707070" font-size="118" font-family="GillSans-UltraBold, Gill Sans" font-weight="700"><tspan x="0" y="0">consultancy</tspan></text>
  </g>
</svg>

