<svg xmlns="http://www.w3.org/2000/svg" xmlns:xlink="http://www.w3.org/1999/xlink" width="1882.375" height="466.739" viewBox="0 0 1882.375 466.739">
  <defs>
    <filter id="Path_1" x="250.319" y="173.395" width="135.567" height="141.733" filterUnits="userSpaceOnUse">
      <feOffset dx="10" dy="10" input="SourceAlpha"/>
      <feGaussianBlur result="blur"/>
      <feFlood flood-color="#fff" flood-opacity="0.431"/>
      <feComposite operator="in" in2="blur"/>
      <feComposite in="SourceGraphic"/>
    </filter>
  </defs>
  <g id="Group_1" data-name="Group 1" transform="translate(-19.5 -168.427)">
    <text id="nr" transform="translate(304.515 558.166)" fill="#64b5f6" font-size="307" font-family="GillSans-UltraBold, Gill Sans" font-weight="700"><tspan x="0" y="0">nr</tspan></text>
    <g transform="matrix(1, 0, 0, 1, 19.5, 168.43)" filter="url(#Path_1)">
      <path id="Path_1-2" data-name="Path 1" d="M130.567,136.733H5V5H130.567Z" transform="translate(245.32 168.39)" fill="#005eb8"/>
    </g>
    <rect id="Rectangle_6" data-name="Rectangle 6" width="29.541" height="30.612" transform="translate(230.95 168.427)" fill="#fff"/>
    <rect id="Rectangle_7" data-name="Rectangle 7" width="73.074" height="75.725" transform="translate(296.25 231.263)" fill="#fff"/>
    <path id="Path_3" data-name="Path 3" d="M0,0H121.1V126.873H0Z" transform="translate(156.32 481.994)" fill="#64b5f6"/>
    <path id="Path_5" data-name="Path 5" d="M0,0H121.1V126.873H0Z" transform="translate(156.32 206.484)" fill="#64b5f6"/>
    <path id="Path_6" data-name="Path 6" d="M0,0H121.1V126.873H0Z" transform="translate(19.5 345.045)" fill="#64b5f6"/>
    <rect id="Rectangle_8" data-name="Rectangle 8" width="29.541" height="30.612" transform="translate(219.95 359.427)" fill="#64b5f6"/>
    <rect id="Rectangle_9" data-name="Rectangle 9" width="29.541" height="30.612" transform="translate(187.95 359.427)" fill="#64b5f6"/>
    <rect id="Rectangle_10" data-name="Rectangle 10" width="29.541" height="30.612" transform="translate(155.95 359.427)" fill="#64b5f6"/>
    <rect id="Rectangle_11" data-name="Rectangle 11" width="29.541" height="30.612" transform="translate(219.95 392.427)" fill="#64b5f6"/>
    <rect id="Rectangle_12" data-name="Rectangle 12" width="29.541" height="30.612" transform="translate(187.95 392.427)" fill="#64b5f6"/>
    <rect id="Rectangle_13" data-name="Rectangle 13" width="29.541" height="30.612" transform="translate(155.95 392.427)" fill="#64b5f6"/>
    <rect id="Rectangle_14" data-name="Rectangle 14" width="29.541" height="30.612" transform="translate(219.95 425.427)" fill="#64b5f6"/>
    <rect id="Rectangle_15" data-name="Rectangle 15" width="29.541" height="30.612" transform="translate(187.95 425.427)" fill="#64b5f6"/>
    <rect id="Rectangle_16" data-name="Rectangle 16" width="29.541" height="30.612" transform="translate(155.95 425.427)" fill="#64b5f6"/>
    <text id="Healthcare" transform="translate(757.875 468.947)" fill="#fff" font-size="166" font-family="GillSans-UltraBold, Gill Sans" font-weight="700"><tspan x="0" y="0">Healthcare</tspan></text>
    <text id="consultancy" transform="translate(776 573)" fill="#1a237e" font-size="118" font-family="GillSans-UltraBold, Gill Sans" font-weight="700"><tspan x="0" y="0">consultancy</tspan></text>
  </g>
</svg>

