<svg xmlns="http://www.w3.org/2000/svg" xmlns:xlink="http://www.w3.org/1999/xlink" width="1509.37" height="442.94" viewBox="0 0 1509.37 442.94">
  <defs>
    <filter id="Path_1" x="250.319" y="175.895" width="135.567" height="141.733" filterUnits="userSpaceOnUse">
      <feOffset dx="10" dy="10" input="SourceAlpha"/>
      <feGaussianBlur result="blur"/>
      <feFlood flood-color="#fff" flood-opacity="0.431"/>
      <feComposite operator="in" in2="blur"/>
      <feComposite in="SourceGraphic"/>
    </filter>
    <linearGradient id="linear-gradient" x1="0.932" y1="-0.887" x2="0.048" y2="2.731" gradientUnits="objectBoundingBox">
      <stop offset="0" stop-color="#fff"/>
      <stop offset="1" stop-color="gray"/>
    </linearGradient>
  </defs>
  <g id="Group_14" data-name="Group 14" transform="translate(-128.5 -296.927)">
    <path id="Path_14" data-name="Path 14" d="M210.564,1.518h-64.75l-41.48-60.83V0H18.97V-192.985H80.052l45.021,65.256v-65.256h85.49Zm37.56-194.5H374.209q32.754,0,51.471,16.5T444.4-135.191q0,27.316-22,42.745Q453.629-56.783,459.7,0H371.048q-2.4-36.548-10.939-54T333.488-71.453V0H248.124Zm85.364,39.71v37.181h2.4q23.017,0,23.017-18.084a20.528,20.528,0,0,0-4.679-13.342q-4.679-5.754-15.555-5.754Z" transform="translate(442 695)" fill="#64b5f6"/>
    <g transform="matrix(1, 0, 0, 1, 128.5, 296.93)" filter="url(#Path_1)">
      <path id="Path_1-2" data-name="Path 1" d="M130.567,136.733H5V5H130.567Z" transform="translate(245.32 170.9)" fill="#005eb8"/>
    </g>
    <rect id="Rectangle_6" data-name="Rectangle 6" width="29.541" height="30.612" transform="translate(339.95 299.427)" fill="#fff" stroke="#000" stroke-width="5"/>
    <rect id="Rectangle_7" data-name="Rectangle 7" width="73.074" height="75.725" transform="translate(405.25 362.263)" fill="#fff" stroke="#000" stroke-width="5"/>
    <path id="Path_3" data-name="Path 3" d="M0,0H121.1V126.873H0Z" transform="translate(265.32 612.994)" fill="#e94d52"/>
    <path id="Path_5" data-name="Path 5" d="M0,0H121.1V126.873H0Z" transform="translate(265.32 337.484)" fill="#f2f8fc" stroke="#000" stroke-width="5"/>
    <path id="Path_6" data-name="Path 6" d="M0,0H121.1V126.873H0Z" transform="translate(128.5 476.044)" fill="#e94d52"/>
    <rect id="Rectangle_8" data-name="Rectangle 8" width="29.541" height="30.612" transform="translate(328.95 490.427)" fill="#f2f8fc" stroke="#000" stroke-width="2"/>
    <rect id="Rectangle_9" data-name="Rectangle 9" width="29.541" height="30.612" transform="translate(296.95 490.427)" fill="#f2f8fc" stroke="#000" stroke-width="2"/>
    <rect id="Rectangle_10" data-name="Rectangle 10" width="29.541" height="30.612" transform="translate(264.95 490.427)" fill="#f2f8fc" stroke="#000" stroke-width="2"/>
    <rect id="Rectangle_11" data-name="Rectangle 11" width="29.541" height="30.612" transform="translate(328.95 523.427)" fill="#f2f8fc" stroke="#000" stroke-width="2"/>
    <rect id="Rectangle_12" data-name="Rectangle 12" width="29.541" height="30.612" transform="translate(296.95 523.427)" fill="#f2f8fc" stroke="#000" stroke-width="2"/>
    <rect id="Rectangle_13" data-name="Rectangle 13" width="29.541" height="30.612" transform="translate(264.95 523.427)" fill="#f2f8fc" stroke="#000" stroke-width="2"/>
    <rect id="Rectangle_14" data-name="Rectangle 14" width="29.541" height="30.612" transform="translate(328.95 556.427)" fill="#f2f8fc" stroke="#000" stroke-width="2"/>
    <rect id="Rectangle_15" data-name="Rectangle 15" width="29.541" height="30.612" transform="translate(296.95 556.427)" fill="#f2f8fc" stroke="#000" stroke-width="2"/>
    <rect id="Rectangle_16" data-name="Rectangle 16" width="29.541" height="30.612" transform="translate(264.95 556.427)" fill="#e94d52"/>
    <path id="Path_13" data-name="Path 13" d="M46.253-46.1H11.591v-78.246H46.253v28.663H63.891v-28.663H98.554V-46.1H63.891V-75.172H46.253ZM175.466-69.634v10.819q-10.409,13.639-29.945,13.639-16.1,0-25.894-8.948t-9.794-23.561q0-13.9,9-22.664t23.356-8.768a36.787,36.787,0,0,1,13.588,2.461,29.973,29.973,0,0,1,10.819,7.23,29.708,29.708,0,0,1,6.717,11.075,47.955,47.955,0,0,1,2.154,15.383H143.112a14.591,14.591,0,0,0,5.845,7.384,16.834,16.834,0,0,0,9.383,2.666Q169.006-62.917,175.466-69.634ZM141.214-83.786h14.921a12.125,12.125,0,0,0-2.282-7.2,6.609,6.609,0,0,0-5.41-2.589,6.527,6.527,0,0,0-5.076,2.487Q141.214-88.606,141.214-83.786Zm44.661,1.333v-18.562q13.434-7.332,30.457-7.332,16.2,0,23.894,6.922t7.691,21.177V-46.1H216.23v-4.615A25.6,25.6,0,0,1,200.8-45.586,16.237,16.237,0,0,1,189-50.175a15.455,15.455,0,0,1-4.717-11.563,16.242,16.242,0,0,1,5.845-12.947q5.845-5,15.28-5a41.059,41.059,0,0,1,10.819,1.436,7.84,7.84,0,0,0-3.307-6.717q-3.307-2.41-9.2-2.41A37.456,37.456,0,0,0,185.875-82.453ZM216.23-59.738v-8.614a16.3,16.3,0,0,0-5.179-.974,6.868,6.868,0,0,0-4.615,1.487,4.875,4.875,0,0,0-1.743,3.9,5.438,5.438,0,0,0,1.872,4.2,6.8,6.8,0,0,0,4.743,1.692A7.36,7.36,0,0,0,216.23-59.738ZM291.4-46.1H259.711v-78.246H291.4Zm61.633-61.735V-90.5H339.8v13.229q0,6.717,6,6.717,4.41,0,7.589-4.41v24.458q-7.486,4.922-18.2,4.922-11.434,0-19.254-6.82t-7.819-18.767V-90.5H295.194l44.609-34.97v17.639ZM393.8-124.345v24.561a23.544,23.544,0,0,1,18.715-8.563q10.511,0,16.587,6.153t6.076,17.126V-46.1H405.23V-81.786q0-7.794-6-7.794a8.248,8.248,0,0,0-5.435,2.41V-46.1H362.057v-78.246Zm110.242,18.921v27.073q-9.435-4.512-17.331-4.512a14.331,14.331,0,0,0-7.1,1.461,4.475,4.475,0,0,0-2.538,4.025q0,5.948,11.024,5.948,9.435,0,15.947-3.23v26.766a70.3,70.3,0,0,1-19.844,2.718q-18.562,0-28.714-8.922a28.848,28.848,0,0,1-10.152-22.664,30.672,30.672,0,0,1,9.691-23.048q9.691-9.306,26-9.306A76.172,76.172,0,0,1,504.038-105.424ZM516.19-82.453v-18.562q13.434-7.332,30.458-7.332,16.2,0,23.894,6.922t7.691,21.177V-46.1H546.545v-4.615a25.6,25.6,0,0,1-15.434,5.128,16.237,16.237,0,0,1-11.793-4.589A15.454,15.454,0,0,1,514.6-61.738a16.242,16.242,0,0,1,5.845-12.947q5.845-5,15.28-5a41.059,41.059,0,0,1,10.819,1.436,7.84,7.84,0,0,0-3.307-6.717q-3.307-2.41-9.2-2.41A37.456,37.456,0,0,0,516.19-82.453Zm30.355,22.715v-8.614a16.3,16.3,0,0,0-5.179-.974,6.868,6.868,0,0,0-4.615,1.487,4.875,4.875,0,0,0-1.743,3.9,5.438,5.438,0,0,0,1.872,4.2,6.8,6.8,0,0,0,4.743,1.692A7.36,7.36,0,0,0,546.545-59.738ZM621.612-94.3q6.05-14.049,17.536-14.049a14.217,14.217,0,0,1,10.563,4.2,14.546,14.546,0,0,1,4.153,10.665,15.01,15.01,0,0,1-4.076,10.947,14.2,14.2,0,0,1-10.64,4.179,17.015,17.015,0,0,1-12.819-5.64q-4.717,4-4.717,14.87V-46.1H589.924v-61.735h31.688ZM723.5-69.634v10.819q-10.409,13.639-29.945,13.639-16.1,0-25.894-8.948t-9.794-23.561q0-13.9,9-22.664t23.356-8.768a36.787,36.787,0,0,1,13.588,2.461,29.973,29.973,0,0,1,10.819,7.23,29.708,29.708,0,0,1,6.717,11.075A47.954,47.954,0,0,1,723.5-72.967H691.141a14.592,14.592,0,0,0,5.845,7.384,16.833,16.833,0,0,0,9.383,2.666Q717.035-62.917,723.5-69.634ZM689.244-83.786h14.921a12.125,12.125,0,0,0-2.282-7.2,6.608,6.608,0,0,0-5.409-2.589,6.527,6.527,0,0,0-5.076,2.487Q689.244-88.606,689.244-83.786Z" transform="translate(911.875 643.947)" stroke="#000" stroke-width="5" fill="url(#linear-gradient)"/>
    <path id="Path_15" data-name="Path 15" d="M56.593-53.1V-28.87q-8.445-4.039-15.514-4.039A12.828,12.828,0,0,0,34.722-31.6,4.005,4.005,0,0,0,32.45-28q0,5.324,9.868,5.324a31.9,31.9,0,0,0,14.274-2.892V-1.606A62.927,62.927,0,0,1,38.83.826q-16.615,0-25.7-7.986A25.823,25.823,0,0,1,4.039-27.447a27.456,27.456,0,0,1,8.675-20.631q8.675-8.331,23.271-8.331A68.184,68.184,0,0,1,56.593-53.1ZM95.377.826Q82.25.826,73.736-7.091T65.222-27.723q0-12.714,8.4-20.7t21.756-7.986q13.448,0,21.871,7.986t8.422,20.7q0,12.668-8.422,20.608T95.377.826Zm0-35.434A5.969,5.969,0,0,0,90.9-32.84a6.27,6.27,0,0,0-1.721,4.567A6.191,6.191,0,0,0,90.9-23.729a6.011,6.011,0,0,0,4.475,1.744,6.146,6.146,0,0,0,4.544-1.744,6.146,6.146,0,0,0,1.744-4.544,6.206,6.206,0,0,0-1.744-4.59A6.146,6.146,0,0,0,95.377-34.607ZM162.8-55.262v6.931a23.008,23.008,0,0,1,17.12-7.39q9.685,0,14.848,5.393t5.164,16V0h-26.8V-32.221q0-6.885-5.232-6.885a8.892,8.892,0,0,0-5.095,1.79V0H134.437V-55.262ZM205.166-5.37,211.5-20.884a21.414,21.414,0,0,0,7.068,6.173,17.044,17.044,0,0,0,8.124,2.226,6.532,6.532,0,0,0,3.97-1.1,3.389,3.389,0,0,0,1.492-2.846,4.053,4.053,0,0,0-1.262-2.96q-1.262-1.262-6.678-2.823a46.431,46.431,0,0,1-8.95-3.419,15.528,15.528,0,0,1-5.806-5.485,14.375,14.375,0,0,1-2.318-7.895,14.438,14.438,0,0,1,7.091-12.829q7.091-4.567,19.9-4.567,14.412,0,24.647,4.728l-6.793,14.091q-6.7-6.013-12.943-6.013a5.637,5.637,0,0,0-3.351.918,2.772,2.772,0,0,0-1.285,2.341,3.913,3.913,0,0,0,1.308,2.938q1.308,1.239,6.954,2.662a48.065,48.065,0,0,1,9.478,3.259,14.17,14.17,0,0,1,5.967,5.508,15.879,15.879,0,0,1,2.226,8.4,15.683,15.683,0,0,1-6.908,13.471Q246.521.826,235.551.826A81.576,81.576,0,0,1,205.166-5.37ZM332.121-55.262V0H304.949V-9.685h-.184a29.716,29.716,0,0,1-8.537,7.711A20.967,20.967,0,0,1,285.855.459q-8.675,0-13.976-5.141t-5.3-14.412V-55.262h26.8v29.788q0,7.527,5.141,7.527a5.66,5.66,0,0,0,5.187-2.937V-55.262ZM371.548,0H343.183V-70.041h28.365Zm55.17-55.262v15.514H414.876v11.842q0,6.013,5.37,6.013,3.947,0,6.793-3.947V-3.947Q420.338.459,410.745.459a25.294,25.294,0,0,1-17.235-6.1q-7-6.1-7-16.8v-17.3H374.944l39.932-31.3v15.789Zm9.042,22.72V-49.157a55.971,55.971,0,0,1,27.264-6.563q14.5,0,21.389,6.2T491.3-30.568V0H462.932V-4.131A22.917,22.917,0,0,1,449.116.459,14.534,14.534,0,0,1,438.56-3.649,13.834,13.834,0,0,1,434.337-14a14.539,14.539,0,0,1,5.232-11.589q5.232-4.475,13.678-4.475a36.754,36.754,0,0,1,9.685,1.285,7.018,7.018,0,0,0-2.96-6.013q-2.96-2.157-8.239-2.157A33.528,33.528,0,0,0,435.76-32.542Zm27.172,20.333V-19.92a14.593,14.593,0,0,0-4.636-.872,6.148,6.148,0,0,0-4.131,1.331,4.364,4.364,0,0,0-1.561,3.488,4.868,4.868,0,0,0,1.675,3.764,6.09,6.09,0,0,0,4.246,1.515A6.588,6.588,0,0,0,462.932-12.209Zm67.1-43.053v6.931a23.008,23.008,0,0,1,17.12-7.39q9.685,0,14.848,5.393t5.164,16V0h-26.8V-32.221q0-6.885-5.232-6.885a8.892,8.892,0,0,0-5.095,1.79V0H501.67V-55.262ZM628.441-53.1V-28.87Q620-32.909,612.928-32.909a12.828,12.828,0,0,0-6.357,1.308A4.005,4.005,0,0,0,604.3-28q0,5.324,9.868,5.324a31.9,31.9,0,0,0,14.274-2.892V-1.606A62.926,62.926,0,0,1,610.679.826q-16.615,0-25.7-7.986a25.823,25.823,0,0,1-9.088-20.287,27.456,27.456,0,0,1,8.675-20.631q8.675-8.331,23.271-8.331A68.184,68.184,0,0,1,628.441-53.1Zm44.338,68.618H641.936l11.383-26.9L633.857-55.262h28.228l6.655,14.733,6.38-14.733h27.539Z" transform="translate(932 692)" fill="#e94d52"/>
  </g>
</svg>
