<?xml version="1.0" encoding="iso-8859-1"?>
<!-- Generator: Adobe Illustrator 19.0.0, SVG Export Plug-In . SVG Version: 6.00 Build 0)  -->
<svg version="1.1" id="Layer_1" xmlns="http://www.w3.org/2000/svg" xmlns:xlink="http://www.w3.org/1999/xlink" x="0px" y="0px"
	 viewBox="0 0 281.131 281.131" style="enable-background:new 0 0 281.131 281.131;" xml:space="preserve">
<g>
	<g>
		<path style="fill:#4EFFBB;" d="M273.929,195.076h-8.44V76.318c0-10.68-8.549-19.378-19.064-19.378h-7.711v120.749
			c0,6.739-8.546,8.001-11.777,3.815H33.604v13.573h-7.203c-4.001,0-7.203,3.284-7.203,7.326v11.403
			c0,16.958,13.567,30.778,30.23,30.778h201.434c16.699,0,30.269-13.82,30.269-30.781V202.4
			C281.132,198.36,277.893,195.076,273.929,195.076z"/>
		<g id="XMLID_15_">
			<g>
				<path style="fill:#302C58;" d="M98.807,206.76h63.083v2.744H30.23c-8.732,0-15.825-7.217-15.825-16.095v-4.079h72.178
					l5.64,13.028C93.35,205.028,95.97,206.76,98.807,206.76z"/>
				<path style="fill:#302C58;" d="M168.51,202.358l5.603-13.028h73.378v4.079c0,8.878-7.093,16.095-15.825,16.095H161.89v-2.744
					C164.763,206.76,167.347,205.028,168.51,202.358z"/>
				<path style="fill:#222051;" d="M21.611,113.697L21.611,113.697c3.978,0,7.203-3.199,7.203-7.146v-15.87
					c0-3.947-3.225-7.144-7.203-7.144l0,0c-3.978,0-7.203,3.199-7.203,7.144v15.87C14.405,110.498,17.633,113.697,21.611,113.697z"
					/>
				<path style="fill:#222051;" d="M254.731,174.68h-8.44V55.925c0-10.68-8.549-19.378-19.064-19.378H33.469
					c-10.514,0-19.064,8.695-19.064,19.378v10.93c0,3.947,3.225,7.146,7.203,7.146l0,0c3.978,0,7.203-3.199,7.203-7.146v-10.93
					c0-2.598,2.111-4.726,4.656-4.726h193.759c2.572,0,4.656,2.069,4.656,4.619v118.865H28.813v-44.306
					c0-3.947-3.225-7.146-7.203-7.146l0,0c-3.978,0-7.203,3.199-7.203,7.146v44.301H7.203C3.202,174.68,0,177.964,0,182.007v11.403
					c0,16.961,13.57,30.781,30.23,30.781h201.434c16.699,0,30.267-13.82,30.267-30.781v-11.403
					C261.933,177.964,258.698,174.68,254.731,174.68z M158.362,189.33l-1.164,2.744h-53.662l-1.2-2.744H158.362z M247.492,193.409
					c0,8.878-7.093,16.095-15.825,16.095H30.23c-8.732,0-15.825-7.217-15.825-16.095v-4.079h72.178l5.64,13.028
					c1.127,2.671,3.747,4.403,6.584,4.403h63.083c2.873,0,5.457-1.732,6.621-4.403l5.603-13.028h73.378V193.409z"/>
			</g>
		</g>
	</g>
</g>
<g>
</g>
<g>
</g>
<g>
</g>
<g>
</g>
<g>
</g>
<g>
</g>
<g>
</g>
<g>
</g>
<g>
</g>
<g>
</g>
<g>
</g>
<g>
</g>
<g>
</g>
<g>
</g>
<g>
</g>
</svg>
