<?xml version="1.0" encoding="iso-8859-1"?>
<!-- Generator: Adobe Illustrator 19.0.0, SVG Export Plug-In . SVG Version: 6.00 Build 0)  -->
<svg version="1.1" id="Layer_1" xmlns="http://www.w3.org/2000/svg" xmlns:xlink="http://www.w3.org/1999/xlink" x="0px" y="0px"
	 viewBox="0 0 292.24 292.24" style="enable-background:new 0 0 292.24 292.24;" xml:space="preserve">
<g>
	<g>
		<g>
			<path style="fill:#4EFFBB;" d="M260.373,66.065c-17.573,0-31.868,14.144-31.868,31.533c0,15.221,10.957,27.955,25.477,30.894
				v122.606c0,11.823-9.719,21.44-21.668,21.44c-11.908,0-21.601-9.559-21.662-21.329v-73.31c0-20.162-16.578-36.565-36.953-36.565
				c-19.458,0-35.415,14.97-36.816,33.874h-0.125v2.472c0,0.073-0.012,0.146-0.012,0.219h0.012v73.129
				c0,11.82-9.719,21.437-21.668,21.437c-11.923,0-21.624-9.582-21.665-21.367L93.419,164.4c36.559-3.794,65.15-34.46,65.15-71.617
				V44.808c0-4.177-3.424-7.562-7.644-7.562h-19.458V23.505c0-4.177-3.424-7.562-7.644-7.562h-19.794
				c-4.22,0-7.644,3.386-7.644,7.562v40.721c0,4.177,3.424,7.562,7.644,7.562h19.794c4.22,0,7.644-3.386,7.644-7.562V52.367h11.815
				v40.408c0,31.375-25.798,56.899-57.509,56.899c-31.708,0-57.506-25.523-57.506-56.899V52.37h10.79v11.858
				c0,4.177,3.424,7.562,7.644,7.562h19.797c4.22,0,7.644-3.386,7.644-7.562V23.505c0-4.177-3.424-7.562-7.644-7.562h-19.8
				c-4.22,0-7.644,3.386-7.644,7.562v13.738H20.623c-4.22,0-7.644,3.386-7.644,7.562v47.971c0,37.16,28.591,67.826,65.15,71.617
				l0.006,86.628h-0.003c0,0.023,0.003,0.047,0.003,0.07v1.731h0.088c0.96,19.321,17.1,34.761,36.862,34.761
				c20.375,0,36.953-16.403,36.953-36.562v-73.342c0.12-11.721,9.783-21.221,21.656-21.221c11.946,0,21.668,9.617,21.668,21.44
				v73.199h-0.006c0,0.038,0.006,0.073,0.006,0.108v1.433h0.073c0.826,19.444,17.024,35.021,36.874,35.021
				c20.378,0,36.956-16.403,36.956-36.565V127.855c13.253-3.82,22.975-15.927,22.975-30.257
				C292.242,80.208,277.946,66.065,260.373,66.065z"/>
		</g>
		<g>
			<g>
				<path style="fill:#222051;" d="M80.44,212.562l-0.003-25.596c0-4.22-3.424-7.644-7.644-7.644l0,0
					c-4.22,0-7.644,3.424-7.644,7.644v25.596c0,4.22,3.424,7.644,7.644,7.644l0,0C77.02,220.206,80.44,216.785,80.44,212.562z"/>
				<path style="fill:#222051;" d="M247.394,54.699c-17.573,0-31.868,14.144-31.868,31.53c0,15.221,10.956,27.957,25.477,30.894
					v122.608c0,11.823-9.722,21.44-21.668,21.44c-11.911,0-21.601-9.558-21.662-21.329v-73.31c0-20.162-16.578-36.565-36.953-36.565
					c-19.458,0-35.415,14.967-36.816,33.874h-0.126v2.472c0,0.073-0.012,0.146-0.012,0.219h0.012v73.129
					c0,11.82-9.722,21.437-21.668,21.437c-11.923,0-21.624-9.582-21.665-21.367v-3.523c0-4.22-3.421-7.644-7.644-7.644l0,0
					c-4.223,0-7.644,3.424-7.644,7.644v3.45h-0.003c0,0.023,0.003,0.047,0.003,0.07v1.731h0.088
					c0.96,19.321,17.1,34.761,36.862,34.761c20.375,0,36.956-16.403,36.956-36.562v-73.345c0.12-11.721,9.783-21.221,21.656-21.221
					c11.946,0,21.668,9.617,21.668,21.44v73.199h-0.006c0,0.038,0.006,0.073,0.006,0.108v1.433h0.073
					c0.826,19.444,17.027,35.021,36.877,35.021c20.378,0,36.956-16.403,36.956-36.565V116.49
					c13.253-3.82,22.975-15.927,22.975-30.257C279.263,68.846,264.967,54.699,247.394,54.699z M247.394,102.638
					c-9.144,0-16.584-7.358-16.584-16.406s7.44-16.406,16.584-16.406s16.581,7.361,16.581,16.406
					C263.978,95.28,256.538,102.638,247.394,102.638z"/>
				<path style="fill:#222051;" d="M72.793,170.963L72.793,170.963c4.22,0,7.644-3.424,7.644-7.644v-10.285
					c36.559-3.794,65.15-34.46,65.15-71.62V33.443c0-4.177-3.424-7.562-7.644-7.562h-19.458V12.143c0-4.177-3.424-7.562-7.644-7.562
					H91.046c-4.22,0-7.644,3.386-7.644,7.562v40.721c0,4.177,3.424,7.562,7.644,7.562h19.794c4.22,0,7.644-3.386,7.644-7.562V41.005
					h11.815v40.408c0,31.375-25.798,56.899-57.509,56.899c-31.708,0-57.506-25.523-57.506-56.899V41.005h10.79v11.858
					c0,4.177,3.424,7.562,7.644,7.562h19.794c4.22,0,7.644-3.386,7.644-7.562v-40.72c0-4.177-3.424-7.562-7.644-7.562H33.719
					c-4.22,0-7.644,3.386-7.644,7.562v13.738H7.644C3.424,25.881,0,29.267,0,33.443v47.971c0,37.16,28.591,67.826,65.15,71.62
					v10.285C65.15,167.539,68.573,170.963,72.793,170.963z M103.2,45.301h-4.51V19.705h4.509L103.2,45.301L103.2,45.301z
					 M41.363,19.705h4.509v25.596h-4.509V19.705z"/>
			</g>
			<g>
				<ellipse style="fill:#222051;" cx="247.394" cy="86.232" rx="8.7" ry="8.61"/>
			</g>
		</g>
	</g>
</g>
<g>
</g>
<g>
</g>
<g>
</g>
<g>
</g>
<g>
</g>
<g>
</g>
<g>
</g>
<g>
</g>
<g>
</g>
<g>
</g>
<g>
</g>
<g>
</g>
<g>
</g>
<g>
</g>
<g>
</g>
</svg>
