<svg xmlns="http://www.w3.org/2000/svg" xmlns:xlink="http://www.w3.org/1999/xlink" width="796.001" height="1080.347" viewBox="0 0 796.001 1080.347">
  <defs>
    <linearGradient id="linear-gradient" x1="0.914" x2="0.032" y2="1" gradientUnits="objectBoundingBox">
      <stop offset="0" stop-color="#c93db2"/>
      <stop offset="1" stop-color="#4a1b69"/>
    </linearGradient>
    <linearGradient id="linear-gradient-2" x1="0.765" y1="0.075" x2="0.146" y2="0.977" gradientUnits="objectBoundingBox">
      <stop offset="0" stop-color="#07c0ce"/>
      <stop offset="1" stop-color="#046067"/>
    </linearGradient>
    <linearGradient id="linear-gradient-3" x1="0.866" x2="0.5" y2="1" gradientUnits="objectBoundingBox">
      <stop offset="0" stop-color="#ce0778"/>
      <stop offset="1" stop-color="#67043c"/>
    </linearGradient>
    <linearGradient id="linear-gradient-4" x1="0.5" x2="0.211" y2="0.995" gradientUnits="objectBoundingBox">
      <stop offset="0" stop-color="#2cd29a"/>
      <stop offset="1" stop-color="#16694d"/>
    </linearGradient>
    <linearGradient id="linear-gradient-5" x1="0.5" x2="1.027" y2="2.684" gradientUnits="objectBoundingBox">
      <stop offset="0" stop-color="#2c2cd2"/>
      <stop offset="1" stop-color="#161669"/>
    </linearGradient>
    <linearGradient id="linear-gradient-6" x1="0.834" y1="0.067" x2="0.247" y2="0.955" gradientUnits="objectBoundingBox">
      <stop offset="0"/>
      <stop offset="1" stop-color="#614d80"/>
    </linearGradient>
    <linearGradient id="linear-gradient-7" x1="0.834" y1="0.067" x2="0.247" y2="0.955" gradientUnits="objectBoundingBox">
      <stop offset="0" stop-color="#ff9a9a"/>
      <stop offset="1" stop-color="#614d80"/>
    </linearGradient>
    <linearGradient id="linear-gradient-8" x1="0.5" x2="0.39" y2="1.064" gradientUnits="objectBoundingBox">
      <stop offset="0" stop-color="#fc470e"/>
      <stop offset="1" stop-color="#7e2407"/>
    </linearGradient>
    <linearGradient id="linear-gradient-9" x1="0.5" x2="-0.042" y2="1.565" gradientUnits="objectBoundingBox">
      <stop offset="0" stop-color="#ff9720"/>
      <stop offset="1" stop-color="#804c10"/>
    </linearGradient>
  </defs>
  <g id="Group_3" data-name="Group 3" transform="translate(-383.999 0.001)">
    <rect id="Rectangle_17" data-name="Rectangle 17" width="796" height="1080" transform="translate(384)" fill="#fff"/>
    <path id="Union_6" data-name="Union 6" d="M-817.529,352.278h-62.918v-19.36H-899V270h62.918v19.36h18.553v62.918h0Zm-50.819-12.906h37.106V302.266h-4.84v30.653h-32.266Zm18.553-19.36V302.266h-18.553v17.746Zm-37.106,0h6.453V289.36h30.652v-6.453H-886.9Z" transform="translate(1486 -70)" fill="url(#linear-gradient)"/>
    <circle id="Ellipse_203" data-name="Ellipse 203" cx="32" cy="32" r="32" transform="translate(490 476)" fill="url(#linear-gradient-2)"/>
    <circle id="Ellipse_204" data-name="Ellipse 204" cx="55.5" cy="55.5" r="55.5" transform="translate(1001 634)" fill="url(#linear-gradient-3)"/>
    <path id="Polygon_2" data-name="Polygon 2" d="M40.5,0,81,70H0Z" transform="translate(827.352 384.631) rotate(-34)" fill="url(#linear-gradient-4)"/>
    <path id="Polygon_3" data-name="Polygon 3" d="M25.5,0,51,44H0Z" transform="translate(468.448 977.547) rotate(-102)" fill="url(#linear-gradient-5)"/>
    <path id="Union_7" data-name="Union 7" d="M40.363,86.69v-34.4H5.963a5.963,5.963,0,0,1,0-11.926h34.4V5.963a5.963,5.963,0,0,1,11.926,0v34.4h34.4a5.963,5.963,0,0,1,0,11.926h-34.4v34.4a5.963,5.963,0,0,1-11.926,0Z" transform="translate(448.043 682.056) rotate(-30)" fill="url(#linear-gradient-6)"/>
    <path id="Union_8" data-name="Union 8" d="M60.6,130.154V78.505H8.952a8.952,8.952,0,0,1,0-17.9H60.6V8.952a8.952,8.952,0,0,1,17.9,0V60.6h51.648a8.952,8.952,0,0,1,0,17.9H78.505v51.648a8.952,8.952,0,0,1-17.9,0Z" transform="matrix(0.966, -0.259, 0.259, 0.966, 781.129, 888.372)" fill="url(#linear-gradient-7)"/>
    <circle id="Ellipse_205" data-name="Ellipse 205" cx="32" cy="32" r="32" transform="matrix(0.995, 0.105, -0.105, 0.995, 1028.52, 89.83)" fill="url(#linear-gradient-8)"/>
    <path id="Subtraction_9" data-name="Subtraction 9" d="M-216.638,453.347A109.753,109.753,0,0,1-231,452.4V328h121.415a109.665,109.665,0,0,1,1.321,16.976,107.69,107.69,0,0,1-8.517,42.183,108.012,108.012,0,0,1-23.225,34.447,108.014,108.014,0,0,1-34.448,23.225A107.7,107.7,0,0,1-216.638,453.347Zm3.918-104.456h0v74.568a65.752,65.752,0,0,0,10.2.794A65.23,65.23,0,0,0-137.358,359.1a65.768,65.768,0,0,0-.794-10.207H-212.72Z" transform="translate(615 -328)" fill="#ee3e62"/>
    <g id="Group_2" data-name="Group 2" transform="translate(-304.474 1575.14) rotate(-60)">
      <line id="Line_1" data-name="Line 1" y1="1.18" x2="109.725" transform="translate(1368.5 409.5)" fill="none" stroke="#07aa9f" stroke-width="10" stroke-dasharray="15"/>
      <line id="Line_2" data-name="Line 2" x2="83.768" transform="translate(1382.658 423.068)" fill="none" stroke="#07aa9f" stroke-width="10" stroke-dasharray="15"/>
      <line id="Line_3" data-name="Line 3" x2="55.452" transform="translate(1397.996 440.176)" fill="none" stroke="#07aa9f" stroke-width="10" stroke-dasharray="15"/>
      <line id="Line_4" data-name="Line 4" x2="23.007" y2="0.59" transform="translate(1415.693 452.564)" fill="none" stroke="#07aa9f" stroke-width="10" stroke-dasharray="15"/>
      <line id="Line_5" data-name="Line 5" x2="11.208" transform="translate(1423.362 470.261)" fill="none" stroke="#07aa9f" stroke-width="10" stroke-dasharray="15"/>
      <line id="Line_6" data-name="Line 6" y1="4.719" x2="5.309" transform="translate(1429.261 482.06)" fill="none" stroke="#07aa9f" stroke-width="10" stroke-dasharray="15"/>
    </g>
    <path id="Polygon_4" data-name="Polygon 4" d="M22,0,44,38H0Z" transform="matrix(0.259, -0.966, 0.966, 0.259, 732.787, 705.322)" fill="url(#linear-gradient-9)"/>
    <path id="Subtraction_10" data-name="Subtraction 10" d="M14.362,125.347A109.753,109.753,0,0,1,0,124.405V0H121.416a109.665,109.665,0,0,1,1.321,16.976,107.69,107.69,0,0,1-8.517,42.183A108.012,108.012,0,0,1,90.994,93.606a108.014,108.014,0,0,1-34.448,23.225A107.7,107.7,0,0,1,14.362,125.347ZM18.28,20.891h0V95.459a65.753,65.753,0,0,0,10.2.794A65.231,65.231,0,0,0,93.643,31.1a65.768,65.768,0,0,0-.794-10.207H18.28Z" transform="translate(1179.736 1080.347) rotate(180)" fill="#ee3e62"/>
  </g>
</svg>
