<svg xmlns="http://www.w3.org/2000/svg" width="404" height="368" viewBox="0 0 404 368">
  <circle id="Ellipse_1" data-name="Ellipse 1" cx="19" cy="19" r="19" transform="translate(61)" fill="#ced0d5"/>
  <circle id="Ellipse_2" data-name="Ellipse 2" cx="19" cy="19" r="19" transform="translate(183)" fill="#ced0d5"/>
  <circle id="Ellipse_3" data-name="Ellipse 3" cx="19" cy="19" r="19" transform="translate(122)" fill="#ced0d5"/>
  <circle id="Ellipse_4" data-name="Ellipse 4" cx="19" cy="19" r="19" transform="translate(244)" fill="#ced0d5"/>
  <circle id="Ellipse_5" data-name="Ellipse 5" cx="19" cy="19" r="19" transform="translate(122 110)" fill="#ced0d5"/>
  <circle id="Ellipse_6" data-name="Ellipse 6" cx="19" cy="19" r="19" transform="translate(305)" fill="#ced0d5"/>
  <circle id="Ellipse_7" data-name="Ellipse 7" cx="19" cy="19" r="19" transform="translate(183 220)" fill="#ced0d5"/>
  <circle id="Ellipse_8" data-name="Ellipse 8" cx="19" cy="19" r="19" transform="translate(0 55)" fill="#ced0d5"/>
  <circle id="Ellipse_9" data-name="Ellipse 9" cx="19" cy="19" r="19" transform="translate(122 220)" fill="#ced0d5"/>
  <circle id="Ellipse_10" data-name="Ellipse 10" cx="19" cy="19" r="19" fill="#ced0d5"/>
  <circle id="Ellipse_11" data-name="Ellipse 11" cx="19" cy="19" r="19" transform="translate(122 165)" fill="#ced0d5"/>
  <circle id="Ellipse_12" data-name="Ellipse 12" cx="19" cy="19" r="19" transform="translate(366)" fill="#ced0d5"/>
  <circle id="Ellipse_13" data-name="Ellipse 13" cx="19" cy="19" r="19" transform="translate(61 55)" fill="#ced0d5"/>
  <circle id="Ellipse_14" data-name="Ellipse 14" cx="19" cy="19" r="19" transform="translate(366 55)" fill="#ced0d5"/>
  <circle id="Ellipse_15" data-name="Ellipse 15" cx="19" cy="19" r="19" transform="translate(244 110)" fill="#ced0d5"/>
  <circle id="Ellipse_16" data-name="Ellipse 16" cx="19" cy="19" r="19" transform="translate(0 220)" fill="#ced0d5"/>
  <circle id="Ellipse_17" data-name="Ellipse 17" cx="19" cy="19" r="19" transform="translate(305 110)" fill="#ced0d5"/>
  <circle id="Ellipse_18" data-name="Ellipse 18" cx="19" cy="19" r="19" transform="translate(0 110)" fill="#ced0d5"/>
  <circle id="Ellipse_19" data-name="Ellipse 19" cx="19" cy="19" r="19" transform="translate(122 55)" fill="#ced0d5"/>
  <circle id="Ellipse_20" data-name="Ellipse 20" cx="19" cy="19" r="19" transform="translate(61 110)" fill="#ced0d5"/>
  <circle id="Ellipse_21" data-name="Ellipse 21" cx="19" cy="19" r="19" transform="translate(61 165)" fill="#ced0d5"/>
  <circle id="Ellipse_22" data-name="Ellipse 22" cx="19" cy="19" r="19" transform="translate(244 55)" fill="#ced0d5"/>
  <circle id="Ellipse_23" data-name="Ellipse 23" cx="19" cy="19" r="19" transform="translate(0 165)" fill="#ced0d5"/>
  <circle id="Ellipse_24" data-name="Ellipse 24" cx="19" cy="19" r="19" transform="translate(183 110)" fill="#ced0d5"/>
  <circle id="Ellipse_25" data-name="Ellipse 25" cx="19" cy="19" r="19" transform="translate(366 110)" fill="#ced0d5"/>
  <circle id="Ellipse_26" data-name="Ellipse 26" cx="19" cy="19" r="19" transform="translate(183 55)" fill="#ced0d5"/>
  <circle id="Ellipse_27" data-name="Ellipse 27" cx="19" cy="19" r="19" transform="translate(61 220)" fill="#ced0d5"/>
  <circle id="Ellipse_28" data-name="Ellipse 28" cx="19" cy="19" r="19" transform="translate(183 165)" fill="#ced0d5"/>
  <circle id="Ellipse_29" data-name="Ellipse 29" cx="19" cy="19" r="19" transform="translate(244 165)" fill="#ced0d5"/>
  <circle id="Ellipse_30" data-name="Ellipse 30" cx="19" cy="19" r="19" transform="translate(366 165)" fill="#ced0d5"/>
  <circle id="Ellipse_31" data-name="Ellipse 31" cx="19" cy="19" r="19" transform="translate(305 165)" fill="#ced0d5"/>
  <circle id="Ellipse_32" data-name="Ellipse 32" cx="19" cy="19" r="19" transform="translate(305 55)" fill="#ced0d5"/>
  <circle id="Ellipse_33" data-name="Ellipse 33" cx="19" cy="19" r="19" transform="translate(183 220)" fill="#ced0d5"/>
  <circle id="Ellipse_34" data-name="Ellipse 34" cx="19" cy="19" r="19" transform="translate(305 275)" fill="#ced0d5"/>
  <circle id="Ellipse_35" data-name="Ellipse 35" cx="19" cy="19" r="19" transform="translate(244 275)" fill="#ced0d5"/>
  <circle id="Ellipse_36" data-name="Ellipse 36" cx="19" cy="19" r="19" transform="translate(183 275)" fill="#ced0d5"/>
  <circle id="Ellipse_37" data-name="Ellipse 37" cx="19" cy="19" r="19" transform="translate(122 275)" fill="#ced0d5"/>
  <circle id="Ellipse_38" data-name="Ellipse 38" cx="19" cy="19" r="19" transform="translate(61 275)" fill="#ced0d5"/>
  <circle id="Ellipse_39" data-name="Ellipse 39" cx="19" cy="19" r="19" transform="translate(0 275)" fill="#ced0d5"/>
  <circle id="Ellipse_40" data-name="Ellipse 40" cx="19" cy="19" r="19" transform="translate(366 220)" fill="#ced0d5"/>
  <circle id="Ellipse_41" data-name="Ellipse 41" cx="19" cy="19" r="19" transform="translate(305 220)" fill="#ced0d5"/>
  <circle id="Ellipse_42" data-name="Ellipse 42" cx="19" cy="19" r="19" transform="translate(244 220)" fill="#ced0d5"/>
  <circle id="Ellipse_44" data-name="Ellipse 44" cx="19" cy="19" r="19" transform="translate(366 330)" fill="#ced0d5"/>
  <circle id="Ellipse_45" data-name="Ellipse 45" cx="19" cy="19" r="19" transform="translate(305 330)" fill="#ced0d5"/>
  <circle id="Ellipse_46" data-name="Ellipse 46" cx="19" cy="19" r="19" transform="translate(244 330)" fill="#ced0d5"/>
  <circle id="Ellipse_47" data-name="Ellipse 47" cx="19" cy="19" r="19" transform="translate(183 330)" fill="#ced0d5"/>
  <circle id="Ellipse_48" data-name="Ellipse 48" cx="19" cy="19" r="19" transform="translate(122 330)" fill="#ced0d5"/>
  <circle id="Ellipse_49" data-name="Ellipse 49" cx="19" cy="19" r="19" transform="translate(61 330)" fill="#ced0d5"/>
  <circle id="Ellipse_50" data-name="Ellipse 50" cx="19" cy="19" r="19" transform="translate(0 330)" fill="#ced0d5"/>
  <circle id="Ellipse_51" data-name="Ellipse 51" cx="19" cy="19" r="19" transform="translate(366 275)" fill="#ced0d5"/>
</svg>
