<?xml version="1.0" encoding="iso-8859-1"?>
<!-- Generator: Adobe Illustrator 19.0.0, SVG Export Plug-In . SVG Version: 6.00 Build 0)  -->
<svg version="1.1" id="Layer_1" xmlns="http://www.w3.org/2000/svg" xmlns:xlink="http://www.w3.org/1999/xlink" x="0px" y="0px"
	 viewBox="0 0 512 512" style="enable-background:new 0 0 512 512;" xml:space="preserve">
<path style="fill:#595E62;" d="M435.464,160.99c5.806,0,10.557,4.751,10.557,10.557v42.227c0,5.806-4.751,10.557-10.557,10.557
	h-63.34l-2.534-2.217c8.129-9.29,13.09-21.43,13.09-34.732c0-9.29-2.428-18.052-6.651-25.547l1.372-0.845H435.464z"/>
<path style="fill:#7E8488;" d="M329.897,134.598c-19.847,0-37.16,10.979-46.133,27.236l-1.372-0.845H256V92.371h226.969v348.371H256
	v-68.619h179.464c5.806,0,10.557-4.751,10.557-10.557V319.34c0-5.806-4.751-10.557-10.557-10.557h-79.175v-75.692
	c5.067-2.956,9.607-6.651,13.301-10.979l2.534,2.217h63.34c5.806,0,10.557-4.751,10.557-10.557v-42.227
	c0-5.806-4.751-10.557-10.557-10.557h-58.062l-1.372,0.845C367.057,145.577,349.743,134.598,329.897,134.598z"/>
<path style="fill:#E7ECED;" d="M329.897,240.165c9.607,0,18.685-2.534,26.392-7.073v75.692v31.67h-52.784v-31.67v-75.692
	C311.212,237.631,320.29,240.165,329.897,240.165z"/>
<path style="fill:#7E8488;" d="M303.505,233.092v75.692H256V224.33h36.104C295.482,227.708,299.282,230.664,303.505,233.092z"/>
<path style="fill:#595E62;" d="M256,308.784h47.505v31.67h52.784v-31.67h79.175c5.806,0,10.557,4.751,10.557,10.557v42.227
	c0,5.806-4.751,10.557-10.557,10.557H256H76.536c-5.806,0-10.557-4.751-10.557-10.557V319.34c0-5.806,4.751-10.557,10.557-10.557
	H256z"/>
<path style="fill:#FFD311;" d="M292.104,224.33c-9.29-9.501-14.991-22.591-14.991-36.948c0-9.29,2.428-18.052,6.651-25.547
	c8.973-16.257,26.286-27.236,46.133-27.236s37.16,10.979,46.133,27.236c4.223,7.495,6.651,16.257,6.651,25.547
	c0,13.301-4.962,25.442-13.09,34.732c-3.695,4.328-8.234,8.023-13.301,10.979c-7.706,4.539-16.785,7.073-26.392,7.073
	s-18.685-2.534-26.392-7.073C299.282,230.664,295.482,227.708,292.104,224.33z"/>
<path style="fill:#757A7E;" d="M256,92.371v68.619h-68.619v-52.784l-0.845-1.372c6.545-3.589,12.246-8.551,16.68-14.463H256z"/>
<path style="fill:#E7ECED;" d="M135.442,106.834c7.495,4.223,16.257,6.651,25.547,6.651s18.052-2.428,25.547-6.651l0.845,1.372
	v52.784v31.67h-52.784v-31.67v-52.784L135.442,106.834z"/>
<path style="fill:#F25B22;" d="M160.99,113.485c-9.29,0-18.052-2.428-25.547-6.651c-6.545-3.589-12.246-8.551-16.68-14.463
	c-6.651-8.762-10.557-19.741-10.557-31.67c0-29.136,23.647-52.784,52.784-52.784s52.784,23.647,52.784,52.784
	c0,11.929-3.906,22.908-10.557,31.67c-4.434,5.912-10.134,10.873-16.68,14.463C179.042,111.056,170.28,113.485,160.99,113.485z"/>
<path style="fill:#757A7E;" d="M135.442,106.834l-0.845,1.372v52.784H76.536c-5.806,0-10.557,4.751-10.557,10.557v42.227
	c0,5.806,4.751,10.557,10.557,10.557H256v84.454H76.536c-5.806,0-10.557,4.751-10.557,10.557v42.227
	c0,5.806,4.751,10.557,10.557,10.557H256v68.619H29.031V92.371h89.732C123.197,98.283,128.897,103.245,135.442,106.834z"/>
<path style="fill:#595E62;" d="M134.598,192.66h52.784v-31.67H256h26.392l1.372,0.845c-4.223,7.495-6.651,16.257-6.651,25.547
	c0,14.357,5.701,27.447,14.991,36.948H256H76.536c-5.806,0-10.557-4.751-10.557-10.557v-42.227c0-5.806,4.751-10.557,10.557-10.557
	h58.062L134.598,192.66L134.598,192.66z"/>
<polygon style="fill:#AFB6BB;" points="29.031,440.742 256,440.742 482.969,440.742 482.969,504.082 29.031,504.082 "/>
<path d="M216.905,84.454c3.152-7.406,4.785-15.432,4.785-23.753C221.691,27.23,194.461,0,160.99,0s-60.701,27.23-60.701,60.701
	c0,8.321,1.633,16.347,4.785,23.753H21.113V512h469.773V84.454H216.905z M160.99,15.835c24.74,0,44.866,20.126,44.866,44.866
	c0,9.877-3.093,19.173-8.973,26.92c-3.759,5.011-8.652,9.255-14.231,12.315c-6.539,3.683-14.03,5.631-21.661,5.631
	c-7.631,0-15.122-1.948-21.739-5.674c-5.5-3.017-10.394-7.26-14.153-12.272l-0.027-0.037c-5.853-7.71-8.946-17.006-8.946-26.883
	C116.124,35.961,136.25,15.835,160.99,15.835z M387.704,168.907h47.76c1.43,0,2.639,1.209,2.639,2.639v42.227
	c0,1.43-1.209,2.639-2.639,2.639h-52.301c4.842-8.858,7.435-18.827,7.435-29.031C390.598,181.076,389.608,174.837,387.704,168.907z
	 M363.569,216.972c-3.054,3.578-6.846,6.7-11.299,9.298c-6.638,3.91-14.374,5.977-22.373,5.977s-15.735-2.067-22.446-6.019
	c-3.517-2.023-6.796-4.545-9.687-7.434c-8.211-8.398-12.733-19.554-12.733-31.413c0-7.631,1.948-15.122,5.665-21.721
	c7.88-14.276,22.901-23.145,39.201-23.145c16.301,0,31.322,8.869,39.201,23.145l0.034,0.06c3.683,6.539,5.631,14.03,5.631,21.661
	C374.763,198.213,370.809,208.695,363.569,216.972z M311.423,332.536v-87.308c5.901,1.878,12.134,2.855,18.474,2.855
	c6.342,0,12.577-0.978,18.474-2.852v87.306H311.423z M295.588,332.536h-18.474v15.835H382.68v-15.835h-18.474v-15.835h71.258
	c1.43,0,2.639,1.209,2.639,2.639v42.227c0,1.43-1.209,2.639-2.639,2.639H76.536c-1.43,0-2.639-1.209-2.639-2.639V319.34
	c0-1.43,1.209-2.639,2.639-2.639h219.052V332.536z M276.53,216.412H76.536c-1.43,0-2.639-1.209-2.639-2.639v-42.227
	c0-1.43,1.209-2.639,2.639-2.639h50.144v15.835h-18.474v15.835h105.567v-15.835h-18.474v-15.835h76.79
	c-1.904,5.93-2.894,12.169-2.894,18.474C269.196,197.688,271.744,207.602,276.53,216.412z M142.515,184.742v-66.234
	c5.93,1.904,12.169,2.894,18.474,2.894c6.312,0,12.557-0.991,18.474-2.889v66.23H142.515z M475.052,496.165H36.948V448.66h438.103
	V496.165z M36.948,432.825V100.289h78.053c3.424,3.963,7.374,7.492,11.679,10.433v42.35H76.536
	c-10.186,0-18.474,8.288-18.474,18.474v42.227c0,10.186,8.288,18.474,18.474,18.474h212.425c2.109,1.898,4.325,3.642,6.626,5.212
	v63.407H76.536c-10.186,0-18.474,8.288-18.474,18.474v42.227c0,10.186,8.288,18.474,18.474,18.474h358.928
	c10.186,0,18.474-8.288,18.474-18.474V319.34c0-10.186-8.288-18.474-18.474-18.474h-71.258v-63.429
	c2.872-1.967,5.523-4.127,7.918-6.46v1.27h63.34c10.186,0,18.474-8.288,18.474-18.474v-42.227c0-10.186-8.288-18.474-18.474-18.474
	h-55.548c-11.224-16.409-29.898-26.392-50.019-26.392c-20.138,0-38.829,10.001-50.023,26.392h-84.575v-42.355
	c4.326-2.957,8.273-6.484,11.681-10.429h268.072v332.536H36.948z"/>
<g>
	<rect x="108.206" y="464.495" style="fill:#FFFFFF;" width="295.588" height="15.835"/>
	<rect x="419.629" y="464.495" style="fill:#FFFFFF;" width="21.113" height="15.835"/>
	<rect x="71.258" y="464.495" style="fill:#FFFFFF;" width="21.113" height="15.835"/>
	<path style="fill:#FFFFFF;" d="M160.99,89.732c-16.008,0-29.031-13.023-29.031-29.031S144.982,31.67,160.99,31.67
		s29.031,13.023,29.031,29.031h-15.835c0-7.277-5.919-13.196-13.196-13.196c-7.277,0-13.196,5.919-13.196,13.196
		s5.919,13.196,13.196,13.196V89.732z"/>
	<path style="fill:#FFFFFF;" d="M329.897,216.412c-16.008,0-29.031-13.023-29.031-29.031s13.023-29.031,29.031-29.031
		s29.031,13.023,29.031,29.031h-15.835c0-7.277-5.919-13.196-13.196-13.196s-13.196,5.919-13.196,13.196
		c0,7.277,5.919,13.196,13.196,13.196V216.412z"/>
	<rect x="50.144" y="116.124" style="fill:#FFFFFF;" width="21.113" height="15.835"/>
	<rect x="440.742" y="116.124" style="fill:#FFFFFF;" width="21.113" height="15.835"/>
	<rect x="50.144" y="401.155" style="fill:#FFFFFF;" width="21.113" height="15.835"/>
	<rect x="440.742" y="401.155" style="fill:#FFFFFF;" width="21.113" height="15.835"/>
</g>
<g>
</g>
<g>
</g>
<g>
</g>
<g>
</g>
<g>
</g>
<g>
</g>
<g>
</g>
<g>
</g>
<g>
</g>
<g>
</g>
<g>
</g>
<g>
</g>
<g>
</g>
<g>
</g>
<g>
</g>
</svg>
