<svg xmlns="http://www.w3.org/2000/svg" width="448.486" height="243.161" viewBox="0 0 448.486 243.161">
  <path id="Path_1" data-name="Path 1" d="M94.753,4.077q-83.5,0-83.5-117.259,0-60.831,22.587-92.714t65.479-31.883q81.543,0,81.543,119.216,0,59.363-22.261,91T94.753,4.077Zm2.283-202.553q-33.433,0-33.433,83.989,0,79.1,32.78,79.1,31.965,0,31.965-81.543T97.036-198.476ZM327.8-239.084V0H276.431V-181.025a61.519,61.519,0,0,1-10.03,7.094,103.542,103.542,0,0,1-12.313,6.034,109.943,109.943,0,0,1-13.536,4.566,98.865,98.865,0,0,1-13.862,2.691v-43.381a214.294,214.294,0,0,0,37.836-15,215.32,215.32,0,0,0,32.128-20.06ZM428.916,4.077q-12.721,0-21.2-7.828A25.167,25.167,0,0,1,399.234-23a24.231,24.231,0,0,1,8.725-19.244q8.725-7.5,21.772-7.5,13.21,0,21.609,7.583A24.7,24.7,0,0,1,459.739-23a24.85,24.85,0,0,1-8.562,19.489Q442.615,4.077,428.916,4.077Z" transform="translate(-11.253 239.084)"/>
</svg>
