<svg xmlns="http://www.w3.org/2000/svg" width="448.486" height="241.856" viewBox="0 0 448.486 241.856">
  <path id="Path_4" data-name="Path 4" d="M94.753,4.077q-83.5,0-83.5-117.259,0-60.831,22.587-92.714t65.479-31.883q81.543,0,81.543,119.216,0,59.363-22.261,91T94.753,4.077Zm2.283-202.553q-33.433,0-33.433,83.989,0,79.1,32.78,79.1,31.965,0,31.965-81.543T97.036-198.476Zm250.337-35.39v147.43h28.051v38.488H347.373V0H300.4V-47.947H198.476V-88.229q13.536-15.167,28.051-33.188t28.051-37.1q13.536-19.081,25.2-38.407a385,385,0,0,0,19.815-36.939ZM244.629-86.436H300.4v-81.706q-5.708,10.6-12.395,21.446t-14.025,21.364q-7.339,10.519-14.841,20.386T244.629-86.436ZM428.916,4.077q-12.721,0-21.2-7.828A25.167,25.167,0,0,1,399.234-23a24.231,24.231,0,0,1,8.725-19.244q8.725-7.5,21.772-7.5,13.21,0,21.609,7.583A24.7,24.7,0,0,1,459.739-23a24.85,24.85,0,0,1-8.562,19.489Q442.615,4.077,428.916,4.077Z" transform="translate(-11.253 237.779)"/>
</svg>
