<svg xmlns="http://www.w3.org/2000/svg" width="448.486" height="241.856" viewBox="0 0 448.486 241.856">
  <path id="Path_2" data-name="Path 2" d="M94.753,4.077q-83.5,0-83.5-117.259,0-60.831,22.587-92.714t65.479-31.883q81.543,0,81.543,119.216,0,59.363-22.261,91T94.753,4.077Zm2.283-202.553q-33.433,0-33.433,83.989,0,79.1,32.78,79.1,31.965,0,31.965-81.543T97.036-198.476ZM262.079-42.729h99.156V0H205.651V-17.613q0-17.939,6.034-32.209a106.885,106.885,0,0,1,15.167-25.6,131.56,131.56,0,0,1,19.978-20.06q10.845-8.725,20.63-15.738,10.274-7.339,18.021-14.025a102.69,102.69,0,0,0,13.047-13.292,50.532,50.532,0,0,0,7.91-13.373,39.771,39.771,0,0,0,2.609-14.433q0-15-8.48-22.669t-25.931-7.665q-30.171,0-57.732,23.974v-45.338q30.5-19.733,68.822-19.733a101.64,101.64,0,0,1,31.883,4.648A67.453,67.453,0,0,1,341.5-219.84a56.689,56.689,0,0,1,14.922,20.957,70.724,70.724,0,0,1,5.137,27.48q0,16.146-4.974,28.7a88.2,88.2,0,0,1-13.21,22.832,119.827,119.827,0,0,1-19,18.836q-10.764,8.562-22.343,16.553-7.828,5.545-15.085,11.008a143.014,143.014,0,0,0-12.8,10.764,58.43,58.43,0,0,0-8.807,10.356A17.876,17.876,0,0,0,262.079-42.729ZM428.916,4.077q-12.721,0-21.2-7.828A25.167,25.167,0,0,1,399.234-23a24.231,24.231,0,0,1,8.725-19.244q8.725-7.5,21.772-7.5,13.21,0,21.609,7.583A24.7,24.7,0,0,1,459.739-23a24.85,24.85,0,0,1-8.562,19.489Q442.615,4.077,428.916,4.077Z" transform="translate(-11.253 237.779)"/>
</svg>
