<svg xmlns="http://www.w3.org/2000/svg" width="448.486" height="241.856" viewBox="0 0 448.486 241.856">
  <path id="Path_5" data-name="Path 5" d="M94.753,4.077q-83.5,0-83.5-117.259,0-60.831,22.587-92.714t65.479-31.883q81.543,0,81.543,119.216,0,59.363-22.261,91T94.753,4.077Zm2.283-202.553q-33.433,0-33.433,83.989,0,79.1,32.78,79.1,31.965,0,31.965-81.543T97.036-198.476ZM215.273-6.034V-50.067A96.134,96.134,0,0,0,266.319-35.39q20.386,0,31.883-9.7t11.5-26.338q0-34.737-49.089-34.737a363.5,363.5,0,0,0-41.75,2.772l8.807-130.469H351.45v42.076H266.972l-3.262,46.806q12.558-.979,21.69-.979,36.042,0,56.428,18.918t20.386,50.883q0,35.39-24.3,57.814T272.027,4.077Q238.269,4.077,215.273-6.034ZM428.916,4.077q-12.721,0-21.2-7.828A25.167,25.167,0,0,1,399.234-23a24.231,24.231,0,0,1,8.725-19.244q8.725-7.5,21.772-7.5,13.21,0,21.609,7.583A24.7,24.7,0,0,1,459.739-23a24.85,24.85,0,0,1-8.562,19.489Q442.615,4.077,428.916,4.077Z" transform="translate(-11.253 237.779)"/>
</svg>
