<svg xmlns="http://www.w3.org/2000/svg" width="448.486" height="241.856" viewBox="0 0 448.486 241.856">
  <path id="Path_3" data-name="Path 3" d="M94.753,4.077q-83.5,0-83.5-117.259,0-60.831,22.587-92.714t65.479-31.883q81.543,0,81.543,119.216,0,59.363-22.261,91T94.753,4.077Zm2.283-202.553q-33.433,0-33.433,83.989,0,79.1,32.78,79.1,31.965,0,31.965-81.543T97.036-198.476ZM211.2-7.665V-52.514q23.484,17.124,54.8,17.124,19.733,0,30.742-8.48t11.008-23.647q0-15.656-13.618-24.137t-37.428-8.48h-21.69V-139.6h20.06q45.664,0,45.664-30.334,0-28.54-35.063-28.54-23.484,0-45.664,15.167v-42.076q24.626-12.395,57.406-12.395,35.879,0,55.857,16.146t19.978,41.913q0,45.827-46.479,57.406v.815q24.789,3.1,39.141,18.021t14.352,36.613q0,32.78-23.974,51.861T270.07,4.077Q233.865,4.077,211.2-7.665ZM428.916,4.077q-12.721,0-21.2-7.828A25.167,25.167,0,0,1,399.234-23a24.231,24.231,0,0,1,8.725-19.244q8.725-7.5,21.772-7.5,13.21,0,21.609,7.583A24.7,24.7,0,0,1,459.739-23a24.85,24.85,0,0,1-8.562,19.489Q442.615,4.077,428.916,4.077Z" transform="translate(-11.253 237.779)"/>
</svg>
